<?xml version="1.0" encoding="iso-8859-1"?>
<!-- Generator: Adobe Illustrator 18.0.0, SVG Export Plug-In . SVG Version: 6.00 Build 0)  -->
<!DOCTYPE svg PUBLIC "-//W3C//DTD SVG 1.1//EN" "http://www.w3.org/Graphics/SVG/1.1/DTD/svg11.dtd">
<svg version="1.1" id="&#x56FE;&#x5C42;_1" xmlns="http://www.w3.org/2000/svg" xmlns:xlink="http://www.w3.org/1999/xlink" x="0px"
	 y="0px" viewBox="0 0 16 16" enable-background="new 0 0 16 16" xml:space="preserve">
<path fill="#FFFFFF" d="M8,1C4.134,1,1,4.134,1,8c0,3.866,3.134,7,7,7s7-3.134,7-7C15,4.134,11.866,1,8,1z M10.507,5
	c0.828,0,1.5,0.672,1.5,1.5S11.336,8,10.507,8c-0.828,0-1.5-0.672-1.5-1.5S9.679,5,10.507,5z M5.507,5c0.828,0,1.5,0.672,1.5,1.5
	S6.336,8,5.507,8c-0.828,0-1.5-0.672-1.5-1.5S4.679,5,5.507,5z M7.992,12.96c-2.422,0-4.442-1.7-4.912-3.96h9.825
	C12.434,11.26,10.414,12.96,7.992,12.96z"/>
</svg>
