<?xml version="1.0" encoding="iso-8859-1"?>
<!-- Generator: Adobe Illustrator 18.0.0, SVG Export Plug-In . SVG Version: 6.00 Build 0)  -->
<!DOCTYPE svg PUBLIC "-//W3C//DTD SVG 1.1//EN" "http://www.w3.org/Graphics/SVG/1.1/DTD/svg11.dtd">
<svg version="1.1" id="&#x56FE;&#x5C42;_1" xmlns="http://www.w3.org/2000/svg" xmlns:xlink="http://www.w3.org/1999/xlink" x="0px"
	 y="0px" viewBox="0 0 16 16" enable-background="new 0 0 16 16" xml:space="preserve">
<g id="Page-1_1_" sketch:type="MSPage">
	<g id="&#x5206;&#x4EAB;_press_1_" sketch:type="MSArtboardGroup">
		<path id="share-icon_1_" sketch:type="MSShapeGroup" fill="#FFFFFF" d="M12.042,5.139c-0.528,0-1.023,0.134-1.452,0.368
			c-0.283,0.155-0.632,0.145-0.906-0.024l-3.068-1.9C6.379,3.436,6.229,3.188,6.213,2.916C6.149,1.859,5.24,1,4.108,1
			C2.944,1,2,1.913,2,3.039c0,1.444,1.505,2.418,2.875,1.899c0.262-0.099,0.557-0.071,0.794,0.076L8.31,6.65
			c0.479,0.297,0.772,0.811,0.774,1.361v0c0.002,0.534-0.279,1.032-0.744,1.319l-2.672,1.655c-0.237,0.147-0.533,0.175-0.794,0.076
			C3.503,10.543,2,11.52,2,12.961C2,14.087,2.944,15,4.108,15c1.131,0,2.041-0.858,2.104-1.916c0.016-0.271,0.167-0.52,0.403-0.667
			l3.068-1.9c0.274-0.17,0.623-0.179,0.906-0.024c0.429,0.234,0.924,0.368,1.452,0.368C13.676,10.861,15,9.58,15,8
			C15,6.42,13.676,5.139,12.042,5.139L12.042,5.139z"/>
	</g>
</g>
</svg>
